<mxfile host="app.diagrams.net" modified="2023-09-07T15:25:46.442Z" agent="Mozilla/5.0 (Macintosh; Intel Mac OS X 10_15_7) AppleWebKit/537.36 (KHTML, like Gecko) Chrome/116.0.0.0 Safari/537.36" etag="h9fqkbw8EOY76cCg1hf8" version="21.7.2" type="github">
  <diagram name="Page-1" id="63qM1-tfgb__tj5nFG9T">
    <mxGraphModel dx="1194" dy="652" grid="1" gridSize="10" guides="1" tooltips="1" connect="1" arrows="1" fold="1" page="1" pageScale="1" pageWidth="827" pageHeight="1169" math="0" shadow="0">
      <root>
        <mxCell id="0" />
        <mxCell id="1" parent="0" />
        <mxCell id="nMWoQP04A_DWtzXEW3hh-1" value="Region" style="points=[[0,0],[0.25,0],[0.5,0],[0.75,0],[1,0],[1,0.25],[1,0.5],[1,0.75],[1,1],[0.75,1],[0.5,1],[0.25,1],[0,1],[0,0.75],[0,0.5],[0,0.25]];outlineConnect=0;gradientColor=none;html=1;whiteSpace=wrap;fontSize=12;fontStyle=0;container=1;pointerEvents=0;collapsible=0;recursiveResize=0;shape=mxgraph.aws4.group;grIcon=mxgraph.aws4.group_region;strokeColor=#147EBA;fillColor=none;verticalAlign=top;align=left;spacingLeft=30;fontColor=#147EBA;dashed=1;" parent="1" vertex="1">
          <mxGeometry x="39" y="160" width="750" height="840" as="geometry" />
        </mxCell>
        <mxCell id="nMWoQP04A_DWtzXEW3hh-2" value="VPC" style="points=[[0,0],[0.25,0],[0.5,0],[0.75,0],[1,0],[1,0.25],[1,0.5],[1,0.75],[1,1],[0.75,1],[0.5,1],[0.25,1],[0,1],[0,0.75],[0,0.5],[0,0.25]];outlineConnect=0;gradientColor=none;html=1;whiteSpace=wrap;fontSize=12;fontStyle=0;container=1;pointerEvents=0;collapsible=0;recursiveResize=0;shape=mxgraph.aws4.group;grIcon=mxgraph.aws4.group_vpc;strokeColor=#248814;fillColor=none;verticalAlign=top;align=left;spacingLeft=30;fontColor=#AAB7B8;dashed=0;" parent="nMWoQP04A_DWtzXEW3hh-1" vertex="1">
          <mxGeometry x="22" y="50" width="630" height="750" as="geometry" />
        </mxCell>
        <mxCell id="nMWoQP04A_DWtzXEW3hh-4" value="Availability Zone A" style="fillColor=none;strokeColor=#147EBA;dashed=1;verticalAlign=top;fontStyle=0;fontColor=#147EBA;whiteSpace=wrap;html=1;" parent="nMWoQP04A_DWtzXEW3hh-2" vertex="1">
          <mxGeometry x="22" y="119" width="280" height="611" as="geometry" />
        </mxCell>
        <mxCell id="nMWoQP04A_DWtzXEW3hh-6" value="Public subnet A1" style="points=[[0,0],[0.25,0],[0.5,0],[0.75,0],[1,0],[1,0.25],[1,0.5],[1,0.75],[1,1],[0.75,1],[0.5,1],[0.25,1],[0,1],[0,0.75],[0,0.5],[0,0.25]];outlineConnect=0;gradientColor=none;html=1;whiteSpace=wrap;fontSize=12;fontStyle=0;container=1;pointerEvents=0;collapsible=0;recursiveResize=0;shape=mxgraph.aws4.group;grIcon=mxgraph.aws4.group_security_group;grStroke=0;strokeColor=#248814;fillColor=#E9F3E6;verticalAlign=top;align=left;spacingLeft=30;fontColor=#248814;dashed=0;" parent="nMWoQP04A_DWtzXEW3hh-2" vertex="1">
          <mxGeometry x="52" y="159" width="210" height="130" as="geometry" />
        </mxCell>
        <mxCell id="nMWoQP04A_DWtzXEW3hh-7" value="Private subnet A1" style="points=[[0,0],[0.25,0],[0.5,0],[0.75,0],[1,0],[1,0.25],[1,0.5],[1,0.75],[1,1],[0.75,1],[0.5,1],[0.25,1],[0,1],[0,0.75],[0,0.5],[0,0.25]];outlineConnect=0;gradientColor=none;html=1;whiteSpace=wrap;fontSize=12;fontStyle=0;container=1;pointerEvents=0;collapsible=0;recursiveResize=0;shape=mxgraph.aws4.group;grIcon=mxgraph.aws4.group_security_group;grStroke=0;strokeColor=#147EBA;fillColor=#E6F2F8;verticalAlign=top;align=left;spacingLeft=30;fontColor=#147EBA;dashed=0;" parent="nMWoQP04A_DWtzXEW3hh-2" vertex="1">
          <mxGeometry x="42" y="319" width="240" height="251" as="geometry" />
        </mxCell>
        <mxCell id="nMWoQP04A_DWtzXEW3hh-12" style="edgeStyle=orthogonalEdgeStyle;rounded=0;orthogonalLoop=1;jettySize=auto;html=1;exitX=0.5;exitY=1;exitDx=0;exitDy=0;exitPerimeter=0;entryX=0.5;entryY=0;entryDx=0;entryDy=0;" parent="nMWoQP04A_DWtzXEW3hh-2" source="nMWoQP04A_DWtzXEW3hh-8" target="nMWoQP04A_DWtzXEW3hh-11" edge="1">
          <mxGeometry relative="1" as="geometry" />
        </mxCell>
        <mxCell id="nMWoQP04A_DWtzXEW3hh-8" value="Fargate" style="sketch=0;points=[[0,0,0],[0.25,0,0],[0.5,0,0],[0.75,0,0],[1,0,0],[0,1,0],[0.25,1,0],[0.5,1,0],[0.75,1,0],[1,1,0],[0,0.25,0],[0,0.5,0],[0,0.75,0],[1,0.25,0],[1,0.5,0],[1,0.75,0]];outlineConnect=0;fontColor=#232F3E;gradientColor=#F78E04;gradientDirection=north;fillColor=#D05C17;strokeColor=#ffffff;dashed=0;verticalLabelPosition=bottom;verticalAlign=top;align=center;html=1;fontSize=12;fontStyle=0;aspect=fixed;shape=mxgraph.aws4.resourceIcon;resIcon=mxgraph.aws4.fargate;" parent="nMWoQP04A_DWtzXEW3hh-2" vertex="1">
          <mxGeometry x="144" y="358" width="60" height="60" as="geometry" />
        </mxCell>
        <mxCell id="nMWoQP04A_DWtzXEW3hh-11" value="EFS Mount Target" style="shape=image;verticalLabelPosition=bottom;labelBackgroundColor=none;verticalAlign=top;aspect=fixed;imageAspect=0;image=https://www.gliffy.com/sites/default/files/image/2020-06/Amazon-Elastic-File-System_EFS_dark-bg.png;" parent="nMWoQP04A_DWtzXEW3hh-2" vertex="1">
          <mxGeometry x="144" y="467" width="60" height="60" as="geometry" />
        </mxCell>
        <mxCell id="nMWoQP04A_DWtzXEW3hh-14" value="ALB" style="sketch=0;outlineConnect=0;fontColor=#232F3E;gradientColor=none;fillColor=#4D27AA;strokeColor=none;dashed=0;verticalLabelPosition=bottom;verticalAlign=top;align=center;html=1;fontSize=12;fontStyle=0;aspect=fixed;pointerEvents=1;shape=mxgraph.aws4.application_load_balancer;" parent="nMWoQP04A_DWtzXEW3hh-2" vertex="1">
          <mxGeometry x="292" y="20" width="60" height="60" as="geometry" />
        </mxCell>
        <mxCell id="nMWoQP04A_DWtzXEW3hh-15" value="Availability Zone B" style="fillColor=none;strokeColor=#147EBA;dashed=1;verticalAlign=top;fontStyle=0;fontColor=#147EBA;whiteSpace=wrap;html=1;" parent="nMWoQP04A_DWtzXEW3hh-2" vertex="1">
          <mxGeometry x="332" y="119" width="280" height="611" as="geometry" />
        </mxCell>
        <mxCell id="nMWoQP04A_DWtzXEW3hh-16" value="Public subnet B1" style="points=[[0,0],[0.25,0],[0.5,0],[0.75,0],[1,0],[1,0.25],[1,0.5],[1,0.75],[1,1],[0.75,1],[0.5,1],[0.25,1],[0,1],[0,0.75],[0,0.5],[0,0.25]];outlineConnect=0;gradientColor=none;html=1;whiteSpace=wrap;fontSize=12;fontStyle=0;container=1;pointerEvents=0;collapsible=0;recursiveResize=0;shape=mxgraph.aws4.group;grIcon=mxgraph.aws4.group_security_group;grStroke=0;strokeColor=#248814;fillColor=#E9F3E6;verticalAlign=top;align=left;spacingLeft=30;fontColor=#248814;dashed=0;" parent="nMWoQP04A_DWtzXEW3hh-2" vertex="1">
          <mxGeometry x="362" y="159" width="210" height="130" as="geometry" />
        </mxCell>
        <mxCell id="nMWoQP04A_DWtzXEW3hh-17" value="Private subnet B1" style="points=[[0,0],[0.25,0],[0.5,0],[0.75,0],[1,0],[1,0.25],[1,0.5],[1,0.75],[1,1],[0.75,1],[0.5,1],[0.25,1],[0,1],[0,0.75],[0,0.5],[0,0.25]];outlineConnect=0;gradientColor=none;html=1;whiteSpace=wrap;fontSize=12;fontStyle=0;container=1;pointerEvents=0;collapsible=0;recursiveResize=0;shape=mxgraph.aws4.group;grIcon=mxgraph.aws4.group_security_group;grStroke=0;strokeColor=#147EBA;fillColor=#E6F2F8;verticalAlign=top;align=left;spacingLeft=30;fontColor=#147EBA;dashed=0;" parent="nMWoQP04A_DWtzXEW3hh-2" vertex="1">
          <mxGeometry x="352" y="319" width="240" height="251" as="geometry" />
        </mxCell>
        <mxCell id="nMWoQP04A_DWtzXEW3hh-19" value="Fargate" style="sketch=0;points=[[0,0,0],[0.25,0,0],[0.5,0,0],[0.75,0,0],[1,0,0],[0,1,0],[0.25,1,0],[0.5,1,0],[0.75,1,0],[1,1,0],[0,0.25,0],[0,0.5,0],[0,0.75,0],[1,0.25,0],[1,0.5,0],[1,0.75,0]];outlineConnect=0;fontColor=#232F3E;gradientColor=#F78E04;gradientDirection=north;fillColor=#D05C17;strokeColor=#ffffff;dashed=0;verticalLabelPosition=bottom;verticalAlign=top;align=center;html=1;fontSize=12;fontStyle=0;aspect=fixed;shape=mxgraph.aws4.resourceIcon;resIcon=mxgraph.aws4.fargate;" parent="nMWoQP04A_DWtzXEW3hh-2" vertex="1">
          <mxGeometry x="454" y="358" width="60" height="60" as="geometry" />
        </mxCell>
        <mxCell id="nMWoQP04A_DWtzXEW3hh-21" value="EFS Mount Target" style="shape=image;verticalLabelPosition=bottom;labelBackgroundColor=none;verticalAlign=top;aspect=fixed;imageAspect=0;image=https://www.gliffy.com/sites/default/files/image/2020-06/Amazon-Elastic-File-System_EFS_dark-bg.png;" parent="nMWoQP04A_DWtzXEW3hh-2" vertex="1">
          <mxGeometry x="454" y="467" width="60" height="60" as="geometry" />
        </mxCell>
        <mxCell id="nMWoQP04A_DWtzXEW3hh-18" style="edgeStyle=orthogonalEdgeStyle;rounded=0;orthogonalLoop=1;jettySize=auto;html=1;exitX=0.5;exitY=1;exitDx=0;exitDy=0;exitPerimeter=0;entryX=0.5;entryY=0;entryDx=0;entryDy=0;" parent="nMWoQP04A_DWtzXEW3hh-2" source="nMWoQP04A_DWtzXEW3hh-19" target="nMWoQP04A_DWtzXEW3hh-21" edge="1">
          <mxGeometry relative="1" as="geometry" />
        </mxCell>
        <mxCell id="nMWoQP04A_DWtzXEW3hh-24" value="" style="endArrow=classic;html=1;rounded=0;entryX=0.5;entryY=0;entryDx=0;entryDy=0;entryPerimeter=0;" parent="nMWoQP04A_DWtzXEW3hh-2" source="nMWoQP04A_DWtzXEW3hh-14" target="nMWoQP04A_DWtzXEW3hh-8" edge="1">
          <mxGeometry width="50" height="50" relative="1" as="geometry">
            <mxPoint x="305.97148341804177" y="110.99931819731364" as="sourcePoint" />
            <mxPoint x="442" y="311" as="targetPoint" />
          </mxGeometry>
        </mxCell>
        <mxCell id="nMWoQP04A_DWtzXEW3hh-25" value="" style="endArrow=classic;html=1;rounded=0;entryX=0.5;entryY=0;entryDx=0;entryDy=0;entryPerimeter=0;" parent="nMWoQP04A_DWtzXEW3hh-2" source="nMWoQP04A_DWtzXEW3hh-14" target="nMWoQP04A_DWtzXEW3hh-19" edge="1">
          <mxGeometry width="50" height="50" relative="1" as="geometry">
            <mxPoint x="339.54472760998124" y="110.99931819731364" as="sourcePoint" />
            <mxPoint x="442" y="311" as="targetPoint" />
          </mxGeometry>
        </mxCell>
        <mxCell id="nMWoQP04A_DWtzXEW3hh-33" value="" style="endArrow=classic;startArrow=classic;html=1;rounded=0;" parent="nMWoQP04A_DWtzXEW3hh-2" source="nMWoQP04A_DWtzXEW3hh-14" target="nMWoQP04A_DWtzXEW3hh-34" edge="1">
          <mxGeometry width="50" height="50" relative="1" as="geometry">
            <mxPoint x="459" y="250" as="sourcePoint" />
            <mxPoint x="429" y="50" as="targetPoint" />
          </mxGeometry>
        </mxCell>
        <mxCell id="nMWoQP04A_DWtzXEW3hh-34" value="WAF" style="sketch=0;outlineConnect=0;fontColor=#232F3E;gradientColor=none;fillColor=#BF0816;strokeColor=none;dashed=0;verticalLabelPosition=bottom;verticalAlign=top;align=center;html=1;fontSize=12;fontStyle=0;aspect=fixed;pointerEvents=1;shape=mxgraph.aws4.network_firewall_endpoints;" parent="nMWoQP04A_DWtzXEW3hh-2" vertex="1">
          <mxGeometry x="419" y="20" width="60" height="60" as="geometry" />
        </mxCell>
        <mxCell id="zmBB6xMdSZS_-rFX-Of8-1" value="Private subnet A2" style="points=[[0,0],[0.25,0],[0.5,0],[0.75,0],[1,0],[1,0.25],[1,0.5],[1,0.75],[1,1],[0.75,1],[0.5,1],[0.25,1],[0,1],[0,0.75],[0,0.5],[0,0.25]];outlineConnect=0;gradientColor=none;html=1;whiteSpace=wrap;fontSize=12;fontStyle=0;container=1;pointerEvents=0;collapsible=0;recursiveResize=0;shape=mxgraph.aws4.group;grIcon=mxgraph.aws4.group_security_group;grStroke=0;strokeColor=#147EBA;fillColor=#E6F2F8;verticalAlign=top;align=left;spacingLeft=30;fontColor=#147EBA;dashed=0;" vertex="1" parent="nMWoQP04A_DWtzXEW3hh-2">
          <mxGeometry x="42" y="590" width="238" height="120" as="geometry" />
        </mxCell>
        <mxCell id="nMWoQP04A_DWtzXEW3hh-9" value="RDS" style="sketch=0;outlineConnect=0;fontColor=#232F3E;gradientColor=none;fillColor=#2E27AD;strokeColor=none;dashed=0;verticalLabelPosition=bottom;verticalAlign=top;align=center;html=1;fontSize=12;fontStyle=0;aspect=fixed;pointerEvents=1;shape=mxgraph.aws4.rds_mysql_instance;" parent="zmBB6xMdSZS_-rFX-Of8-1" vertex="1">
          <mxGeometry x="47" y="30" width="60" height="60" as="geometry" />
        </mxCell>
        <mxCell id="zmBB6xMdSZS_-rFX-Of8-2" value="Private subnet B2" style="points=[[0,0],[0.25,0],[0.5,0],[0.75,0],[1,0],[1,0.25],[1,0.5],[1,0.75],[1,1],[0.75,1],[0.5,1],[0.25,1],[0,1],[0,0.75],[0,0.5],[0,0.25]];outlineConnect=0;gradientColor=none;html=1;whiteSpace=wrap;fontSize=12;fontStyle=0;container=1;pointerEvents=0;collapsible=0;recursiveResize=0;shape=mxgraph.aws4.group;grIcon=mxgraph.aws4.group_security_group;grStroke=0;strokeColor=#147EBA;fillColor=#E6F2F8;verticalAlign=top;align=left;spacingLeft=30;fontColor=#147EBA;dashed=0;" vertex="1" parent="nMWoQP04A_DWtzXEW3hh-2">
          <mxGeometry x="354" y="590" width="238" height="120" as="geometry" />
        </mxCell>
        <mxCell id="nMWoQP04A_DWtzXEW3hh-26" style="edgeStyle=orthogonalEdgeStyle;rounded=0;orthogonalLoop=1;jettySize=auto;html=1;exitX=0.5;exitY=1;exitDx=0;exitDy=0;exitPerimeter=0;entryX=0.5;entryY=1;entryDx=0;entryDy=0;" parent="nMWoQP04A_DWtzXEW3hh-1" source="nMWoQP04A_DWtzXEW3hh-10" target="nMWoQP04A_DWtzXEW3hh-21" edge="1">
          <mxGeometry relative="1" as="geometry">
            <Array as="points">
              <mxPoint x="699" y="610" />
              <mxPoint x="506" y="610" />
            </Array>
          </mxGeometry>
        </mxCell>
        <mxCell id="nMWoQP04A_DWtzXEW3hh-27" style="edgeStyle=orthogonalEdgeStyle;rounded=0;orthogonalLoop=1;jettySize=auto;html=1;exitX=0.5;exitY=1;exitDx=0;exitDy=0;exitPerimeter=0;entryX=0.5;entryY=1;entryDx=0;entryDy=0;" parent="nMWoQP04A_DWtzXEW3hh-1" source="nMWoQP04A_DWtzXEW3hh-10" target="nMWoQP04A_DWtzXEW3hh-11" edge="1">
          <mxGeometry relative="1" as="geometry">
            <Array as="points">
              <mxPoint x="699" y="610" />
              <mxPoint x="196" y="610" />
            </Array>
          </mxGeometry>
        </mxCell>
        <mxCell id="nMWoQP04A_DWtzXEW3hh-10" value="EFS" style="sketch=0;points=[[0,0,0],[0.25,0,0],[0.5,0,0],[0.75,0,0],[1,0,0],[0,1,0],[0.25,1,0],[0.5,1,0],[0.75,1,0],[1,1,0],[0,0.25,0],[0,0.5,0],[0,0.75,0],[1,0.25,0],[1,0.5,0],[1,0.75,0]];outlineConnect=0;fontColor=#232F3E;gradientColor=#60A337;gradientDirection=north;fillColor=#277116;strokeColor=#ffffff;dashed=0;verticalLabelPosition=bottom;verticalAlign=top;align=center;html=1;fontSize=12;fontStyle=0;aspect=fixed;shape=mxgraph.aws4.resourceIcon;resIcon=mxgraph.aws4.efs_standard;" parent="nMWoQP04A_DWtzXEW3hh-1" vertex="1">
          <mxGeometry x="669" y="517" width="60" height="60" as="geometry" />
        </mxCell>
        <mxCell id="nMWoQP04A_DWtzXEW3hh-28" value="ECS" style="sketch=0;points=[[0,0,0],[0.25,0,0],[0.5,0,0],[0.75,0,0],[1,0,0],[0,1,0],[0.25,1,0],[0.5,1,0],[0.75,1,0],[1,1,0],[0,0.25,0],[0,0.5,0],[0,0.75,0],[1,0.25,0],[1,0.5,0],[1,0.75,0]];outlineConnect=0;fontColor=#232F3E;gradientColor=#F78E04;gradientDirection=north;fillColor=#D05C17;strokeColor=#ffffff;dashed=0;verticalLabelPosition=bottom;verticalAlign=top;align=center;html=1;fontSize=12;fontStyle=0;aspect=fixed;shape=mxgraph.aws4.resourceIcon;resIcon=mxgraph.aws4.ecs_anywhere;" parent="nMWoQP04A_DWtzXEW3hh-1" vertex="1">
          <mxGeometry x="669" y="409" width="60" height="60" as="geometry" />
        </mxCell>
        <mxCell id="zmBB6xMdSZS_-rFX-Of8-3" value="&lt;br&gt;CloudWatch" style="sketch=0;outlineConnect=0;fontColor=#232F3E;gradientColor=none;strokeColor=#ffffff;fillColor=#232F3E;dashed=0;verticalLabelPosition=middle;verticalAlign=bottom;align=center;html=1;whiteSpace=wrap;fontSize=10;fontStyle=1;spacing=3;shape=mxgraph.aws4.productIcon;prIcon=mxgraph.aws4.cloudwatch;" vertex="1" parent="nMWoQP04A_DWtzXEW3hh-1">
          <mxGeometry x="663.5" y="280" width="71" height="90" as="geometry" />
        </mxCell>
        <mxCell id="nMWoQP04A_DWtzXEW3hh-3" value="Internet Gateway" style="sketch=0;outlineConnect=0;fontColor=#232F3E;gradientColor=none;fillColor=#4D27AA;strokeColor=none;dashed=0;verticalLabelPosition=bottom;verticalAlign=top;align=center;html=1;fontSize=12;fontStyle=0;aspect=fixed;pointerEvents=1;shape=mxgraph.aws4.internet_gateway;" parent="1" vertex="1">
          <mxGeometry x="356" y="130" width="50" height="50" as="geometry" />
        </mxCell>
        <mxCell id="nMWoQP04A_DWtzXEW3hh-29" value="" style="endArrow=classic;html=1;rounded=0;" parent="1" source="nMWoQP04A_DWtzXEW3hh-3" target="nMWoQP04A_DWtzXEW3hh-14" edge="1">
          <mxGeometry width="50" height="50" relative="1" as="geometry">
            <mxPoint x="511" y="400" as="sourcePoint" />
            <mxPoint x="561" y="350" as="targetPoint" />
          </mxGeometry>
        </mxCell>
        <mxCell id="nMWoQP04A_DWtzXEW3hh-30" value="" style="sketch=0;outlineConnect=0;fontColor=#232F3E;gradientColor=none;fillColor=#232F3D;strokeColor=none;dashed=0;verticalLabelPosition=bottom;verticalAlign=top;align=center;html=1;fontSize=12;fontStyle=0;aspect=fixed;pointerEvents=1;shape=mxgraph.aws4.users;" parent="1" vertex="1">
          <mxGeometry x="351" y="20" width="60" height="60" as="geometry" />
        </mxCell>
        <mxCell id="nMWoQP04A_DWtzXEW3hh-31" value="" style="endArrow=classic;html=1;rounded=0;" parent="1" source="nMWoQP04A_DWtzXEW3hh-30" target="nMWoQP04A_DWtzXEW3hh-3" edge="1">
          <mxGeometry width="50" height="50" relative="1" as="geometry">
            <mxPoint x="511" y="300" as="sourcePoint" />
            <mxPoint x="561" y="250" as="targetPoint" />
          </mxGeometry>
        </mxCell>
      </root>
    </mxGraphModel>
  </diagram>
</mxfile>
